HIERARCHY
ROOT root
{
	OFFSET	0	13.1	24.9
	CHANNELS 6  Xposition Yposition Zposition Xrotation Yrotation Zrotation
	JOINT spine_1
	{
		OFFSET	0	9.99999	0
		CHANNELS 3  Xrotation Yrotation Zrotation
		JOINT spine_2
		{
			OFFSET	0	112	-10
			CHANNELS 3  Xrotation Yrotation Zrotation
			JOINT spine_3
			{
				OFFSET	0	206.5	19.3
				CHANNELS 3  Xrotation Yrotation Zrotation
				JOINT spine_4
				{
					OFFSET	0	110.4	14.6
					CHANNELS 3  Xrotation Yrotation Zrotation
					JOINT neck_1
					{
						OFFSET	0	71.8	-50.3
						CHANNELS 3  Xrotation Yrotation Zrotation
						JOINT neck_2
						{
							OFFSET	0	86.2	-25.8
							CHANNELS 3  Xrotation Yrotation Zrotation
							JOINT head_ee
							{
								OFFSET	0	179.8	-8.7
								CHANNELS 3  Xrotation Yrotation Zrotation
								End Site
								{
									OFFSET	1	0	0
								}
							}
						}
					}
					JOINT left_clavicle
					{
						OFFSET	-43.2	22.4	-70.8
						CHANNELS 3  Xrotation Yrotation Zrotation
						JOINT left_shoulder
						{
							OFFSET	-93.9	-5.79999	48.7
							CHANNELS 3  Xrotation Yrotation Zrotation
							JOINT left_elbow
							{
								OFFSET	-291.4	-30.8	15.2
								CHANNELS 3  Xrotation Yrotation Zrotation
								JOINT left_lowarm_twist
								{
									OFFSET	-110.7	-3.89999	13.6
									CHANNELS 3  Xrotation Yrotation Zrotation
									JOINT left_hand
									{
										OFFSET	-110.7	-3.89999	13.6
										CHANNELS 3  Xrotation Yrotation Zrotation
										JOINT left_ee
										{
											OFFSET	-80.8	-5.10001	12.1
											CHANNELS 3  Xrotation Yrotation Zrotation
											End Site
											{
												OFFSET	1	0	0
											}
										}
									}
								}
							}
						}
					}
					JOINT right_clavicle
					{
						OFFSET	43.2	22.4	-70.8
						CHANNELS 3  Xrotation Yrotation Zrotation
						JOINT right_shoulder
						{
							OFFSET	93.9	-5.79999	48.7
							CHANNELS 3  Xrotation Yrotation Zrotation
							JOINT right_elbow
							{
								OFFSET	291.4	-30.8	15.2
								CHANNELS 3  Xrotation Yrotation Zrotation
								JOINT right_lowarm_twist
								{
									OFFSET	110.7	-3.89999	13.6
									CHANNELS 3  Xrotation Yrotation Zrotation
									JOINT right_hand
									{
										OFFSET	110.7	-3.89999	13.6
										CHANNELS 3  Xrotation Yrotation Zrotation
										JOINT right_ee
										{
											OFFSET	80.8	-5.10001	12.1
											CHANNELS 3  Xrotation Yrotation Zrotation
											End Site
											{
												OFFSET	1	0	0
											}
										}
									}
								}
							}
						}
					}
				}
			}
		}
	}
	JOINT left_hip
	{
		OFFSET	-82.8	-127.5	0.300001
		CHANNELS 3  Xrotation Yrotation Zrotation
		JOINT left_knee
		{
			OFFSET	-28.2	-396.7	2.2
			CHANNELS 3  Xrotation Yrotation Zrotation
			JOINT left_ankle
			{
				OFFSET	-11.7	-411.3	35.4
				CHANNELS 3  Xrotation Yrotation Zrotation
				JOINT left_toes
				{
					OFFSET	0	-60	-88.6
					CHANNELS 3  Xrotation Yrotation Zrotation
					JOINT left_foot_ee
					{
						OFFSET	-22.5	-16.5	-42.2
						CHANNELS 3  Xrotation Yrotation Zrotation
						End Site
						{
							OFFSET	1	0	0
						}
					}
				}
			}
		}
	}
	JOINT right_hip
	{
		OFFSET	82.8	-127.5	0.300001
		CHANNELS 3  Xrotation Yrotation Zrotation
		JOINT right_knee
		{
			OFFSET	28.2	-396.7	2.2
			CHANNELS 3  Xrotation Yrotation Zrotation
			JOINT right_ankle
			{
				OFFSET	11.7	-411.3	35.4
				CHANNELS 3  Xrotation Yrotation Zrotation
				JOINT right_toes
				{
					OFFSET	0	-60	-88.6
					CHANNELS 3  Xrotation Yrotation Zrotation
					JOINT right_foot_ee
					{
						OFFSET	22.5	-16.5	-42.2
						CHANNELS 3  Xrotation Yrotation Zrotation
						End Site
						{
							OFFSET	1	0	0
						}
					}
				}
			}
		}
	}
}
MOTION
Frames: 13
Frame Time: 0.02
2916.40954772 676.783 -1927.11269365 -15.7390786059 24.5069419365 8.04196840559 6.81627 -0.00721624 0.309792 6.81632 -0.0269144 0.308705 6.81611 -0.0554035 0.304883 6.81598 -0.00655778 0.309807 -5.15677 6.06558 0.526601 -5.13459 10.7685 1.59875 -0.0 0.0 -0.0 -0.981986 2.497 -1.55319 5.38969 -6.92877 79.891 0.973844 -25.7528 0.222623 -29.2653 -1.88843 3.18808 -1.26106 6.38399 -5.57475 -0.0 0.0 -0.0 6.41111 3.1683 -12.3783 -24.259 -1.5245 -74.9095 0.915947 24.4051 -0.198081 -55.8884 4.7763 -4.95489 1.21076 -15.2698 -13.8727 0.0 0.0 0.0 26.0178 -18.3674 2.74932 -20.2043 0.293154 3.07061 34.8639 21.5231 -4.55912 -2.87889 0.0 0.0 -0.0 0.0 -0.0 33.5908 29.4138 -9.65761 -44.9971 0.814887 -6.6832 36.5491 -4.40398 4.54705 3.51449 -0.0 -0.0 0.0 0.0 0.0 
2913.52321821 676.783 -1924.16211536 -15.8202042534 25.1277431939 8.23524743158 6.81627 -0.00721624 0.309792 6.81632 -0.0269144 0.308705 6.81611 -0.0554035 0.304883 6.81598 -0.00655778 0.309807 -5.15677 6.06558 0.526601 -5.13459 10.7685 1.59875 -0.0 0.0 -0.0 -0.981986 2.497 -1.55319 5.38969 -6.92877 79.891 0.973844 -25.7528 0.222623 -29.2653 -1.88843 3.18808 -1.26106 6.38399 -5.57475 -0.0 0.0 -0.0 6.41111 3.1683 -12.3783 -24.259 -1.5245 -74.9095 0.915947 24.4051 -0.198081 -55.8884 4.7763 -4.95489 1.21076 -15.2698 -13.8727 0.0 0.0 0.0 26.0178 -18.3674 2.74932 -20.2043 0.293154 3.07061 34.8639 21.5231 -4.55912 -2.87889 0.0 0.0 -0.0 0.0 -0.0 33.5908 29.4138 -9.65761 -44.9971 0.814887 -6.6832 36.5491 -4.40398 4.54705 3.51449 -0.0 -0.0 0.0 0.0 0.0 
2888.03872079 682.92 -1912.44620405 -14.3570472051 28.1443110648 8.1414903801 5.91035 -0.0138663 0.219525 5.91037 -0.0278072 0.218198 5.91024 -0.0512939 0.213899 5.91018 -0.0168689 0.219315 -8.39332 5.3521 0.662297 -8.40586 9.54372 1.85302 -0.0 0.0 -0.0 -0.124249 2.47404 0.0605838 6.3514 -7.33221 78.1987 1.37336 -34.2265 0.422868 -31.6742 -2.11232 3.40088 -1.87927 7.83944 -8.95402 -0.0 0.0 -0.0 6.36592 4.63848 -12.2504 -22.8547 -1.19501 -74.9677 0.81974 22.1007 -0.160092 -53.8803 4.53298 -4.8703 2.03922 -12.4757 -18.3483 0.0 0.0 0.0 24.2487 -18.6367 3.18217 -19.5306 0.300928 2.96753 33.0643 23.041 -4.40328 -4.17891 0.0 0.0 -0.0 0.0 -0.0 38.8096 25.0247 -9.47817 -46.4672 0.928596 -6.87876 35.2391 -0.862594 4.43627 2.13047 -0.0 -0.0 0.0 0.0 0.0 
2863.025991 684.645 -1904.07382145 -13.6115919463 30.9904355587 8.5588132676 5.6626 -0.0404432 0.0378451 5.6626 -0.0427694 0.0351949 5.66257 -0.0464629 0.0301513 5.66257 -0.041118 0.0371108 -10.4657 5.08443 0.817095 -10.4941 9.04272 2.09931 -0.0 0.0 -0.0 0.532752 3.14051 1.36948 6.59754 -7.21862 77.1588 1.67095 -39.6126 0.601822 -32.5487 -2.1958 3.47579 -2.13579 7.83347 -10.6456 -0.0 0.0 -0.0 6.25808 4.04946 -12.0469 -22.4226 -2.18896 -73.7575 0.771731 20.9214 -0.142487 -53.282 4.46107 -4.84345 1.974 -13.5371 -18.2649 0.0 0.0 0.0 21.9157 -15.7833 3.23049 -18.4443 0.310909 2.80116 33.5342 24.8762 -4.50085 -4.88463 0.0 0.0 -0.0 0.0 -0.0 40.5221 20.6406 -9.29082 -44.7123 0.793447 -6.64498 33.2621 0.272417 4.2501 1.79368 -0.0 -0.0 0.0 0.0 0.0 
2801.66543322 676.347 -1922.69074842 -11.2628205484 32.5778914484 7.61540475876 5.09532 -0.240889 -0.094286 5.09529 -0.234402 -0.109423 5.09576 -0.219231 -0.137315 5.09582 -0.238166 -0.100968 -10.7562 7.2037 -1.80841 -10.8324 14.798 0.14352 -0.0 0.0 -0.0 2.23008 4.15073 4.61718 5.87254 -7.26047 71.2996 2.45633 -50.5777 1.16066 -32.3148 -2.17336 3.45588 -3.00128 10.5078 -15.003 -0.0 0.0 -0.0 5.33608 3.24455 -10.2116 -23.7329 -0.643387 -73.1476 0.557487 15.4383 -0.0755657 -50.5468 4.13601 -4.7112 3.48595 -11.3776 -28.0942 0.0 0.0 0.0 12.2184 -13.6259 5.01357 -11.1751 0.296422 1.68668 37.8512 26.2402 -4.99637 -5.84503 0.0 0.0 -0.0 0.0 -0.0 48.3239 17.9875 -11.3903 -51.0777 1.31731 -7.47249 32.2053 -6.27171 4.11929 0.00167023 -0.0 -0.0 0.0 0.0 0.0 
2800.3597682 676.347 -1920.74588059 -11.3000736865 32.8685224133 7.68431766331 5.09532 -0.240889 -0.094286 5.09529 -0.234402 -0.109423 5.09576 -0.219231 -0.137315 5.09582 -0.238166 -0.100968 -10.7562 7.2037 -1.80841 -10.8324 14.798 0.14352 -0.0 0.0 -0.0 2.23008 4.15073 4.61718 5.87254 -7.26047 71.2996 2.45633 -50.5777 1.16066 -32.3148 -2.17336 3.45588 -3.00128 10.5078 -15.003 -0.0 0.0 -0.0 5.33608 3.24455 -10.2116 -23.7329 -0.643387 -73.1476 0.557487 15.4383 -0.0755657 -50.5468 4.13601 -4.7112 3.48595 -11.3776 -28.0942 0.0 0.0 0.0 12.2184 -13.6259 5.01357 -11.1751 0.296422 1.68668 37.8512 26.2402 -4.99637 -5.84503 0.0 0.0 -0.0 0.0 -0.0 48.3239 17.9875 -11.3903 -51.0777 1.31731 -7.47249 32.2053 -6.27171 4.11929 0.00167023 -0.0 -0.0 0.0 0.0 0.0 
2789.31391961 672.749 -1934.2236827 -11.1128496768 32.6868256284 7.10067083495 5.14276 -0.252878 0.0649728 5.14272 -0.2565 0.0487497 5.14253 -0.260526 0.0171712 5.14262 -0.254545 0.0581013 -10.7546 7.08882 -0.622628 -10.8288 13.7965 1.26086 -0.0 0.0 -0.0 2.33222 2.63524 4.69472 5.17056 -7.60253 69.4743 2.60311 -52.1979 1.27536 -34.0058 -2.3374 3.59777 -3.18694 11.2139 -15.8514 -0.0 0.0 -0.0 4.78396 2.62369 -9.13395 -22.7307 -0.912909 -75.4971 0.45377 12.6688 -0.0503727 -49.8006 4.04844 -4.67243 3.64506 -11.1985 -29.2114 0.0 0.0 0.0 10.7661 -9.9568 5.31096 -10.4664 0.287448 1.57831 38.6134 25.4422 -5.0468 -5.0242 0.0 0.0 -0.0 0.0 -0.0 51.5562 18.4615 -12.1332 -50.6623 1.28034 -7.42028 27.8994 -9.84913 3.66614 0.171735 -0.0 -0.0 0.0 0.0 0.0 
2758.18548473 664.906 -1967.27536376 -12.9231068907 30.2629805329 7.95069129761 5.5484 -0.198011 0.252262 5.54841 -0.213661 0.239151 5.54752 -0.239679 0.213069 5.54751 -0.203021 0.248248 -7.68282 7.46288 -0.398494 -7.69442 14.1946 1.1992 -0.0 0.0 -0.0 2.54208 1.861 5.03422 3.43269 -7.87235 64.2271 3.14717 -57.3102 1.72012 -32.4006 -2.18158 3.46319 -2.88907 13.4472 -12.6905 -0.0 0.0 -0.0 3.87012 -1.00691 -7.51579 -21.757 0.716481 -75.8832 0.287417 8.10338 -0.0203588 -49.7825 4.04632 -4.67148 4.27704 -9.3227 -33.4423 0.0 0.0 0.0 5.59291 -10.628 5.04309 -1.96865 0.0760373 0.292537 42.0802 25.194 -5.36987 -4.70029 0.0 0.0 -0.0 0.0 -0.0 54.5667 22.2188 -15.2351 -44.8895 0.806763 -6.66877 21.3119 -16.0341 2.92815 1.99294 -0.0 -0.0 0.0 0.0 0.0 
2758.76160385 664.906 -1968.08347759 -12.9087102621 30.1551549107 7.92207869772 5.5484 -0.198011 0.252262 5.54841 -0.213661 0.239151 5.54752 -0.239679 0.213069 5.54751 -0.203021 0.248248 -7.68282 7.46288 -0.398494 -7.69442 14.1946 1.1992 -0.0 0.0 -0.0 2.54208 1.861 5.03422 3.43269 -7.87235 64.2271 3.14717 -57.3102 1.72012 -32.4006 -2.18158 3.46319 -2.88907 13.4472 -12.6905 -0.0 0.0 -0.0 3.87012 -1.00691 -7.51579 -21.757 0.716481 -75.8832 0.287417 8.10338 -0.0203588 -49.7825 4.04632 -4.67148 4.27704 -9.3227 -33.4423 0.0 0.0 0.0 5.59291 -10.628 5.04309 -1.96865 0.0760373 0.292537 42.0802 25.194 -5.36987 -4.70029 0.0 0.0 -0.0 0.0 -0.0 54.5667 22.2188 -15.2351 -44.8895 0.806763 -6.66877 21.3119 -16.0341 2.92815 1.99294 -0.0 -0.0 0.0 0.0 0.0 
2735.68118696 661.628 -1980.10886783 -14.4588389968 29.1146357096 8.60959410274 5.24345 0.0377691 0.0450029 5.24345 0.0348289 0.0473151 5.24348 0.028902 0.0511511 5.24348 0.0366177 0.0459447 -6.00004 8.89675 -0.904274 -5.95983 17.1149 0.760395 -0.0 0.0 -0.0 2.404 0.709388 4.68577 1.78743 -8.59489 63.7315 4.10093 -63.7724 2.55191 -34.1261 -2.34923 3.60768 -2.9369 15.7849 -11.733 -0.0 0.0 -0.0 3.92203 0.260736 -7.55172 -19.0271 -0.353079 -76.2106 0.198771 5.62366 -0.00976269 -49.4908 4.01223 -4.656 4.77415 -6.84139 -36.6092 0.0 0.0 0.0 3.8871 -9.09772 5.30882 3.3766 -0.153703 -0.495225 42.2564 26.1872 -5.42163 -2.43105 0.0 0.0 -0.0 0.0 -0.0 53.9117 26.5529 -15.87 -25.8623 -0.180182 -3.93116 3.88963 -21.1093 0.57804 -4.58319 0.0 0.0 0.0 0.0 0.0 
2737.50539116 661.628 -1982.68308403 -14.4126532328 28.7903258644 8.51418594245 5.24345 0.0377691 0.0450029 5.24345 0.0348289 0.0473151 5.24348 0.028902 0.0511511 5.24348 0.0366177 0.0459447 -6.00004 8.89675 -0.904274 -5.95983 17.1149 0.760395 -0.0 0.0 -0.0 2.404 0.709388 4.68577 1.78743 -8.59489 63.7315 4.10093 -63.7724 2.55191 -34.1261 -2.34923 3.60768 -2.9369 15.7849 -11.733 -0.0 0.0 -0.0 3.92203 0.260736 -7.55172 -19.0271 -0.353079 -76.2106 0.198771 5.62366 -0.00976269 -49.4908 4.01223 -4.656 4.77415 -6.84139 -36.6092 0.0 0.0 0.0 3.8871 -9.09772 5.30882 3.3766 -0.153703 -0.495225 42.2564 26.1872 -5.42163 -2.43105 0.0 0.0 -0.0 0.0 -0.0 53.9117 26.5529 -15.87 -25.8623 -0.180182 -3.93116 3.88963 -21.1093 0.57804 -4.58319 0.0 0.0 0.0 0.0 0.0 
2673.58207493 650.968 -2019.8518663 -15.2367772729 27.2965437915 8.86285372744 5.56685 0.212837 -0.0604167 5.56683 0.21625 -0.0467508 5.56668 0.220177 -0.0217162 5.56674 0.213984 -0.0562167 -3.69926 10.424 -3.28624 -3.46824 21.5489 -1.81061 -0.0 0.0 -0.0 2.92708 5.18689 5.97063 -2.06225 -8.03659 62.4483 4.77945 -67.079 3.16922 -35.7716 -2.51311 3.74073 -2.75755 26.7924 -4.69991 -0.0 0.0 -0.0 2.81427 -0.00290187 -5.42308 -17.6066 -0.691355 -78.0857 0.188132 5.32443 -0.00874773 -52.7875 4.40185 -4.82069 4.2569 -8.58716 -33.0416 0.0 0.0 0.0 0.597858 -8.15462 7.12469 3.18315 -0.14411 -0.467099 42.8814 24.9195 -5.43309 8.14568 -0.0 -0.0 -0.0 0.0 -0.0 44.9962 32.145 -12.9814 4.0746 0.189109 0.596442 -1.87172 -12.0136 -0.275604 -10.3498 0.0 0.0 0.0 0.0 0.0 
2676.93295781 650.968 -2024.61564886 -15.1639982688 26.7716065755 8.70273282802 5.56685 0.212837 -0.0604167 5.56683 0.21625 -0.0467508 5.56668 0.220177 -0.0217162 5.56674 0.213984 -0.0562167 -3.69926 10.424 -3.28624 -3.46824 21.5489 -1.81061 -0.0 0.0 -0.0 2.92708 5.18689 5.97063 -2.06225 -8.03659 62.4483 4.77945 -67.079 3.16922 -35.7716 -2.51311 3.74073 -2.75755 26.7924 -4.69991 -0.0 0.0 -0.0 2.81427 -0.00290187 -5.42308 -17.6066 -0.691355 -78.0857 0.188132 5.32443 -0.00874773 -52.7875 4.40185 -4.82069 4.2569 -8.58716 -33.0416 0.0 0.0 0.0 0.597858 -8.15462 7.12469 3.18315 -0.14411 -0.467099 42.8814 24.9195 -5.43309 8.14568 -0.0 -0.0 -0.0 0.0 -0.0 44.9962 32.145 -12.9814 4.0746 0.189109 0.596442 -1.87172 -12.0136 -0.275604 -10.3498 0.0 0.0 0.0 0.0 0.0 
